<svg width="412" height="337" viewBox="0 0 412 337" fill="none" xmlns="http://www.w3.org/2000/svg">
<g clip-path="url(#clip0)">
<path d="M378.781 185.057C365.173 176.103 345.154 171.125 341.881 152.188C339.473 138.229 350.646 127.11 354.623 114.585C359.168 100.301 357.085 86.3956 348.942 73.789C331.384 46.655 305.63 29.9093 276.494 20.1974C233.183 5.77823 182.351 6.91445 140.013 12.5685C109.714 16.6264 48.2229 26.0949 48.9262 67.5127C49.4673 99.949 101.192 124.594 76.3037 158.464C68.8371 168.636 57.8807 175.535 47.8171 183.163C14.5151 208.377 6.64272 257.369 29.6105 292.159C65.1579 345.94 128.57 328.302 176.237 304.441C211.568 286.776 245.167 272.221 285.232 282.88C313.665 290.428 345.804 304.603 375.643 296.758C403.372 289.481 416.438 255.394 410.487 229.099C406.375 210.893 394.228 195.229 378.781 185.057Z" fill="#1769FF"/>
<path d="M118.533 25.7161H42.1901C24.173 25.7161 9.56445 40.3246 9.56445 58.3417C9.56445 76.3589 24.173 90.9674 42.1901 90.9674H118.533C120.319 90.9674 122.077 90.8321 123.781 90.5346C125.621 93.2669 128.57 96.6485 133.033 99.3808C140.446 103.899 147.615 103.899 150.32 103.79C147.425 101.707 141.771 97.0543 137.957 89.0467C137.389 87.8834 136.929 86.7201 136.523 85.611C145.369 79.7675 151.213 69.758 151.213 58.3688C151.159 40.3246 136.55 25.7161 118.533 25.7161Z" fill="#8AB3FF"/>
<path d="M80.3457 63.4129C83.2216 62.9462 85.1746 60.2364 84.7078 57.3605C84.2411 54.4847 81.5314 52.5317 78.6555 52.9984C75.7796 53.4651 73.8266 56.1749 74.2933 59.0508C74.7601 61.9266 77.4698 63.8796 80.3457 63.4129Z" fill="white"/>
<path d="M58.9901 63.4546C61.9036 63.4546 64.2654 61.0928 64.2654 58.1793C64.2654 55.2659 61.9036 52.9041 58.9901 52.9041C56.0767 52.9041 53.7148 55.2659 53.7148 58.1793C53.7148 61.0928 56.0767 63.4546 58.9901 63.4546Z" fill="white"/>
<path d="M100.002 63.4817C102.916 63.4817 105.278 61.1199 105.278 58.2064C105.278 55.293 102.916 52.9312 100.002 52.9312C97.0889 52.9312 94.7271 55.293 94.7271 58.2064C94.7271 61.1199 97.0889 63.4817 100.002 63.4817Z" fill="white"/>
<path d="M188.275 298.544C203.506 291.293 218.574 285.125 234.157 281.825C234.157 275.062 234.157 269.759 234.157 269.137H188.221C188.221 275.549 188.248 288.75 188.275 298.544Z" fill="#ADBEFA"/>
<path d="M106.819 257.694C106.819 264.728 112.527 270.436 119.561 270.436H302.79C309.824 270.436 315.532 264.728 315.532 257.694V253.284H106.819V257.694Z" fill="#CAD8E9"/>
<path d="M302.79 130.167H269.461H119.588C112.554 130.167 106.846 135.875 106.846 142.909V253.257H269.488H315.586V142.936C315.531 135.875 309.823 130.167 302.79 130.167Z" fill="#E7EFFD"/>
<path d="M157.895 126.407H122.239V244.411H292.185V126.407H207.185H157.895Z" fill="white"/>
<path d="M286.315 117.073H152.349V126.434H292.185V122.944C292.185 119.698 289.561 117.073 286.315 117.073Z" fill="#5C96FF"/>
<path d="M129.165 117.074C125.323 117.074 122.212 119.698 122.212 122.944V126.434H157.895V117.074H129.165Z" fill="#5C96FF"/>
<path d="M134.143 124.269C135.547 124.269 136.686 123.131 136.686 121.726C136.686 120.322 135.547 119.183 134.143 119.183C132.738 119.183 131.6 120.322 131.6 121.726C131.6 123.131 132.738 124.269 134.143 124.269Z" fill="#5C96FF"/>
<path d="M145.991 119.21C144.584 119.21 143.448 120.347 143.448 121.753C143.448 123.16 144.584 124.296 145.991 124.296C147.398 124.296 148.534 123.16 148.534 121.753C148.534 120.347 147.398 119.21 145.991 119.21Z" fill="#5C96FF"/>
<path d="M127.866 147.21H185.137L193.632 155.624C193.632 155.624 193.632 152.485 193.632 147.21V138.851V111.203H127.866V147.21Z" fill="#E7EFFD"/>
<path d="M158.626 122.918H136.767C135.82 122.918 135.036 123.702 135.036 124.649V124.839C135.036 125.786 135.82 126.57 136.767 126.57H158.626C159.573 126.57 160.357 125.786 160.357 124.839V124.649C160.357 123.702 159.6 122.918 158.626 122.918Z" fill="#A1C2FF"/>
<path d="M184.732 122.917H174.533C173.586 122.917 172.801 123.701 172.801 124.648V124.837C172.801 125.784 173.586 126.569 174.533 126.569H184.732C185.678 126.569 186.463 125.784 186.463 124.837V124.648C186.463 123.701 185.705 122.917 184.732 122.917Z" fill="#A1C2FF"/>
<path d="M169.446 122.917H164.469C163.522 122.917 162.737 123.701 162.737 124.648V124.837C162.737 125.784 163.522 126.569 164.469 126.569H169.446C170.393 126.569 171.178 125.784 171.178 124.837V124.648C171.178 123.701 170.393 122.917 169.446 122.917Z" fill="#A1C2FF"/>
<path d="M144.828 131.257H136.767C135.82 131.257 135.035 132.042 135.035 132.989V133.178C135.035 134.125 135.82 134.909 136.767 134.909H144.828C145.775 134.909 146.56 134.125 146.56 133.178V132.989C146.56 132.015 145.775 131.257 144.828 131.257Z" fill="#A1C2FF"/>
<path d="M184.731 131.257H151.375C150.428 131.257 149.644 132.042 149.644 132.988V133.178C149.644 134.125 150.428 134.909 151.375 134.909H184.731C185.678 134.909 186.462 134.125 186.462 133.178V132.988C186.462 132.015 185.705 131.257 184.731 131.257Z" fill="#A1C2FF"/>
<path d="M127.866 236.025H185.137L193.632 244.438C193.632 244.438 193.632 241.3 193.632 236.025V227.666V200.018H127.866V236.025Z" fill="#8AB3FF"/>
<path d="M145.938 211.731H136.767C135.82 211.731 135.036 212.516 135.036 213.463V213.652C135.036 214.599 135.82 215.384 136.767 215.384H145.938C146.885 215.384 147.669 214.599 147.669 213.652V213.463C147.669 212.489 146.885 211.731 145.938 211.731Z" fill="white"/>
<path d="M184.732 211.731H174.533C173.586 211.731 172.801 212.516 172.801 213.463V213.652C172.801 214.599 173.586 215.383 174.533 215.383H184.732C185.678 215.383 186.463 214.599 186.463 213.652V213.463C186.463 212.489 185.705 211.731 184.732 211.731Z" fill="white"/>
<path d="M169.446 211.731H151.781C150.834 211.731 150.049 212.516 150.049 213.463V213.652C150.049 214.599 150.834 215.383 151.781 215.383H169.446C170.393 215.383 171.178 214.599 171.178 213.652V213.463C171.178 212.489 170.393 211.731 169.446 211.731Z" fill="white"/>
<path d="M157.517 220.659H136.767C135.82 220.659 135.036 221.444 135.036 222.391V222.58C135.036 223.527 135.82 224.312 136.767 224.312H157.517C158.463 224.312 159.248 223.527 159.248 222.58V222.391C159.248 221.444 158.49 220.659 157.517 220.659Z" fill="white"/>
<path d="M184.732 220.659H164.09C163.143 220.659 162.359 221.443 162.359 222.39V222.579C162.359 223.526 163.143 224.311 164.09 224.311H184.732C185.678 224.311 186.463 223.526 186.463 222.579V222.39C186.463 221.443 185.705 220.659 184.732 220.659Z" fill="white"/>
<path d="M220.793 183.271V191.631C220.793 196.906 220.793 200.044 220.793 200.044L229.288 191.631H283.826V155.624H220.793V183.271Z" fill="#1769FF"/>
<path d="M239.92 167.311H229.829C228.882 167.311 228.098 168.095 228.098 169.042V169.232C228.098 170.178 228.882 170.963 229.829 170.963H239.92C240.867 170.963 241.651 170.178 241.651 169.232V169.042C241.651 168.095 240.867 167.311 239.92 167.311Z" fill="white"/>
<path d="M275.088 167.31H245.601C244.654 167.31 243.869 168.095 243.869 169.042V169.231C243.869 170.178 244.654 170.962 245.601 170.962H275.088C276.035 170.962 276.819 170.178 276.819 169.231V169.042C276.819 168.095 276.035 167.31 275.088 167.31Z" fill="white"/>
<path d="M251.444 176.266H229.856C228.909 176.266 228.125 177.05 228.125 177.997V178.187C228.125 179.133 228.909 179.918 229.856 179.918H251.444C252.391 179.918 253.175 179.133 253.175 178.187V177.997C253.175 177.05 252.391 176.266 251.444 176.266Z" fill="white"/>
<path d="M275.089 176.265H257.991C257.044 176.265 256.26 177.049 256.26 177.996V178.186C256.26 179.132 257.044 179.917 257.991 179.917H275.089C276.035 179.917 276.82 179.132 276.82 178.186V177.996C276.82 177.049 276.035 176.265 275.089 176.265Z" fill="white"/>
<path d="M269.569 253.149H292.185V244.411H269.569V253.149Z" fill="#5C96FF"/>
<path d="M122.239 253.258L157.895 253.231L207.185 253.204L269.569 253.15V244.412H122.239V253.258Z" fill="url(#paint0_linear)"/>
<path d="M218.737 259.804H203.641C202.532 259.804 201.612 260.724 201.612 261.833C201.612 262.942 202.532 263.862 203.641 263.862H218.737C219.846 263.862 220.766 262.942 220.766 261.833C220.766 260.724 219.846 259.804 218.737 259.804Z" fill="white"/>
<path d="M137.524 278.146C135.495 277.172 133.872 275.955 132.601 274.737C130.626 259.155 116.153 247.062 98.5953 247.062H93.32H38.8357H34.5343C15.6514 247.062 0.3125 261.103 0.3125 278.416C0.3125 295.135 14.5964 308.77 32.5865 309.717L98.5953 309.771C111.878 309.771 123.403 302.845 129.084 292.727C132.357 291.726 135.901 290.347 139.58 288.453C148.264 283.989 151.916 281.798 155.487 277.957C154.216 278.498 145.965 282.204 137.524 278.146Z" fill="#E7EFFD"/>
<path d="M32.5876 274.788H51.2006C52.1192 274.788 52.8927 275.561 52.8927 276.48C52.8927 277.398 52.1192 278.172 51.2006 278.172H32.5876C31.669 278.172 30.8955 277.398 30.8955 276.48C30.8955 275.561 31.669 274.788 32.5876 274.788Z" fill="#8AB3FF"/>
<path d="M55.8898 274.788H82.1898C83.1084 274.788 83.8819 275.561 83.8819 276.48C83.8819 277.398 83.1084 278.172 82.1898 278.172H55.8898C54.9713 278.172 54.1978 277.398 54.1978 276.48C54.1978 275.513 54.9229 274.788 55.8898 274.788Z" fill="#8AB3FF"/>
<path d="M87.0246 274.788H105.154C106.073 274.788 106.846 275.561 106.846 276.48C106.846 277.398 106.073 278.172 105.154 278.172H87.0246C86.106 278.172 85.3325 277.398 85.3325 276.48C85.3325 275.513 86.106 274.788 87.0246 274.788Z" fill="#8AB3FF"/>
<path d="M32.5881 263.862H36.1657C37.0842 263.862 37.8578 264.636 37.8578 265.554C37.8578 266.473 37.0842 267.246 36.1657 267.246H32.5881C31.6695 267.246 30.896 266.473 30.896 265.554C30.9443 264.636 31.6695 263.862 32.5881 263.862Z" fill="#8AB3FF"/>
<path d="M41.3386 263.862H65.6564C66.5749 263.862 67.3484 264.635 67.3484 265.554C67.3484 266.472 66.5749 267.246 65.6564 267.246H41.3386C40.42 267.246 39.6465 266.472 39.6465 265.554C39.6948 264.635 40.42 263.862 41.3386 263.862Z" fill="#8AB3FF"/>
<path d="M32.5876 285.666H65.9944C66.9129 285.666 67.6865 286.439 67.6865 287.358C67.6865 288.276 66.9129 289.05 65.9944 289.05H32.5876C31.669 289.05 30.8955 288.276 30.8955 287.358C30.9439 286.439 31.669 285.666 32.5876 285.666Z" fill="#8AB3FF"/>
<path d="M70.6838 285.665H74.213C75.1316 285.665 75.9051 286.439 75.9051 287.357C75.9051 288.276 75.1316 289.049 74.213 289.049H70.6838C69.7652 289.049 68.9917 288.276 68.9917 287.357C68.9917 286.439 69.7652 285.665 70.6838 285.665Z" fill="#8AB3FF"/>
<path d="M79.0954 285.665H105.154C106.072 285.665 106.846 286.439 106.846 287.357C106.846 288.276 106.072 289.049 105.154 289.049H79.0954C78.1768 289.049 77.4033 288.276 77.4033 287.357C77.4033 286.439 78.1768 285.665 79.0954 285.665Z" fill="#8AB3FF"/>
<path d="M315.079 93.4771H272.745C260.783 93.4771 251.091 83.7855 251.091 71.8235C251.091 59.8616 260.783 50.1699 272.745 50.1699H315.079C327.041 50.1699 336.733 59.8616 336.733 71.8235C336.733 83.7664 327.041 93.4771 315.079 93.4771Z" fill="white"/>
<path d="M323.893 57.038C323.76 57.038 323.626 56.9998 323.493 56.9235C320.841 55.3591 317.808 54.5197 314.717 54.5197H314.068C313.649 54.5197 313.305 54.1762 313.305 53.7565C313.305 53.3368 313.649 52.9934 314.068 52.9934H314.717C318.094 52.9934 321.394 53.8901 324.294 55.6071C324.657 55.817 324.79 56.2939 324.561 56.6564C324.409 56.8853 324.142 57.038 323.893 57.038Z" fill="white"/>
<path d="M256.261 66.0619C256.166 66.0619 256.071 66.0428 255.975 66.0046C255.574 65.852 255.384 65.4132 255.536 65.0126C256.891 61.5022 259.237 58.526 262.347 56.3702C265.514 54.1572 269.234 52.9934 273.107 52.9934H285.527C285.947 52.9934 286.29 53.3368 286.29 53.7565C286.29 54.1762 285.947 54.5197 285.527 54.5197H273.107C266.029 54.5197 259.543 58.9648 256.986 65.5658C256.853 65.8711 256.567 66.0619 256.261 66.0619Z" fill="white"/>
<path d="M257.959 82.4309C257.711 82.4309 257.463 82.3164 257.311 82.0875C255.327 79.035 254.277 75.4865 254.277 71.8235C254.277 70.8696 254.354 69.9157 254.487 68.9809C254.544 68.5612 254.945 68.275 255.365 68.3322C255.785 68.3895 256.071 68.7901 256.013 69.2098C255.88 70.0683 255.823 70.9459 255.823 71.8235C255.823 75.1813 256.796 78.4436 258.608 81.2481C258.837 81.6106 258.742 82.0875 258.379 82.3164C258.246 82.3737 258.112 82.4309 257.959 82.4309Z" fill="white"/>
<path d="M261.584 86.4755C261.413 86.4755 261.241 86.4183 261.088 86.3038C260.459 85.7697 259.848 85.1973 259.276 84.5868C258.99 84.2816 259.009 83.7855 259.314 83.4994C259.619 83.2132 260.115 83.2323 260.402 83.5375C260.917 84.0908 261.47 84.625 262.061 85.121C262.386 85.3881 262.443 85.8841 262.157 86.2084C262.023 86.3802 261.794 86.4755 261.584 86.4755Z" fill="white"/>
<path d="M314.717 90.6343H313.248C312.828 90.6343 312.485 90.2909 312.485 89.8712C312.485 89.4515 312.828 89.1081 313.248 89.1081H314.717C322.692 89.1081 329.579 83.709 331.506 75.9823C331.601 75.5626 332.021 75.3146 332.441 75.41C332.86 75.5054 333.108 75.9251 333.013 76.3448C330.895 84.7583 323.398 90.6343 314.717 90.6343Z" fill="white"/>
<path d="M328.434 60.8535C328.224 60.8535 327.995 60.7581 327.842 60.5864C327.251 59.8996 326.602 59.251 325.896 58.6596C325.572 58.3925 325.534 57.8964 325.801 57.5721C326.068 57.2478 326.564 57.2096 326.888 57.4767C327.652 58.1254 328.357 58.8313 329.006 59.5753C329.273 59.8996 329.235 60.3766 328.93 60.6628C328.796 60.7963 328.624 60.8535 328.434 60.8535Z" fill="white"/>
<path d="M292.986 89.2036C293.559 90.2338 294.608 92.5041 294.474 95.4803C294.265 100.173 291.269 103.15 290.563 103.817C292.452 103.417 296.554 102.291 300.16 98.7426C302.239 96.7013 303.441 94.5455 304.128 93.0383L292.986 89.2036Z" fill="white"/>
<path d="M268.91 70.6746H281.736C282.369 70.6746 282.902 71.2076 282.902 71.8406C282.902 72.4735 282.369 73.0065 281.736 73.0065H268.91C268.277 73.0065 267.744 72.4735 267.744 71.8406C267.744 71.2076 268.277 70.6746 268.91 70.6746Z" fill="#1769FF"/>
<path d="M284.967 70.6743H303.09C303.723 70.6743 304.256 71.2073 304.256 71.8403C304.256 72.4733 303.723 73.0063 303.09 73.0063H284.967C284.334 73.0063 283.801 72.4733 283.801 71.8403C283.801 71.174 284.3 70.6743 284.967 70.6743Z" fill="#1769FF"/>
<path d="M306.421 70.6743H318.914C319.547 70.6743 320.08 71.2073 320.08 71.8403C320.08 72.4733 319.547 73.0063 318.914 73.0063H306.421C305.788 73.0063 305.255 72.4733 305.255 71.8403C305.255 71.174 305.788 70.6743 306.421 70.6743Z" fill="#1769FF"/>
<path d="M268.91 63.1458H271.375C272.008 63.1458 272.541 63.6788 272.541 64.3117C272.541 64.9447 272.008 65.4777 271.375 65.4777H268.91C268.277 65.4777 267.744 64.9447 267.744 64.3117C267.777 63.6788 268.277 63.1458 268.91 63.1458Z" fill="#1769FF"/>
<path d="M274.939 63.1453H291.696C292.329 63.1453 292.862 63.6783 292.862 64.3113C292.862 64.9442 292.329 65.4772 291.696 65.4772H274.939C274.306 65.4772 273.773 64.9442 273.773 64.3113C273.806 63.6783 274.306 63.1453 274.939 63.1453Z" fill="#1769FF"/>
<path d="M268.91 78.1702H291.93C292.563 78.1702 293.096 78.7032 293.096 79.3362C293.096 79.9691 292.563 80.5022 291.93 80.5022H268.91C268.277 80.5022 267.744 79.9691 267.744 79.3362C267.777 78.7032 268.277 78.1702 268.91 78.1702Z" fill="#1769FF"/>
<path d="M295.161 78.1699H297.593C298.226 78.1699 298.759 78.7029 298.759 79.3359C298.759 79.9689 298.226 80.5019 297.593 80.5019H295.161C294.528 80.5019 293.995 79.9689 293.995 79.3359C293.995 78.7029 294.528 78.1699 295.161 78.1699Z" fill="#1769FF"/>
<path d="M300.957 78.1699H318.914C319.547 78.1699 320.08 78.7029 320.08 79.3359C320.08 79.9689 319.547 80.5019 318.914 80.5019H300.957C300.325 80.5019 299.792 79.9689 299.792 79.3359C299.792 78.7029 300.325 78.1699 300.957 78.1699Z" fill="#1769FF"/>
</g>
<defs>
<linearGradient id="paint0_linear" x1="195.904" y1="273.085" x2="195.904" y2="233.047" gradientUnits="userSpaceOnUse">
<stop stop-color="#BBBBBB"/>
<stop offset="0.045404" stop-color="#CCCDCD"/>
<stop offset="0.1083" stop-color="#DDDEDE"/>
<stop offset="0.1866" stop-color="#E8E9E9"/>
<stop offset="0.2966" stop-color="#EFF0F0"/>
<stop offset="0.6017" stop-color="#F1F2F2"/>
<stop offset="1" stop-color="white"/>
</linearGradient>
<clipPath id="clip0">
<rect width="411.581" height="335.238" fill="white" transform="translate(0.3125 0.98999)"/>
</clipPath>
</defs>
</svg>
